<?xml version="1.0" encoding="UTF-8"?>
<svg id="a" data-name="Layer 1" xmlns="http://www.w3.org/2000/svg" viewBox="0 0 156.9 131.47">
  <defs>
    <style>
      .b {
        fill: #03c7fd;
      }

      .b, .c {
        stroke-width: 0px;
      }

      .c {
        fill: #0068b5;
      }
    </style>
  </defs>
  <g>
    <rect class="b" x="0" y=".83" width="11.37" height="11.37"/>
    <g>
      <path class="c" d="m11.08,60.01V19.1H.3v40.92h10.78Zm71.45.41v-10.03c-1.59,0-2.9-.09-3.9-.25-1.11-.18-1.96-.55-2.53-1.12-.57-.57-.95-1.39-1.12-2.45-.17-1.01-.25-2.34-.25-3.95v-14.31h7.8v-9.22h-7.8V3.15h-10.78v39.55c0,3.34.29,6.17.86,8.44.57,2.24,1.53,4.06,2.87,5.43,1.34,1.37,3.11,2.36,5.26,2.95,2.17.6,4.94.9,8.22.9h1.36Zm61.78-.41V0h-10.78v60.01h10.78ZM53.55,23.12c-2.99-3.22-7.2-4.86-12.54-4.86-2.57,0-4.95.53-7.07,1.57-2.12,1.05-3.92,2.51-5.36,4.37l-.59.76v-.68s0-5.19,0-5.19h-10.63v40.92h10.71v-21.8,1.51c0-.25.01-.5.02-.74.11-3.82,1.07-6.68,2.84-8.49,1.9-1.93,4.2-2.91,6.84-2.91,3.11,0,5.48.95,7.06,2.83,1.54,1.84,2.33,4.48,2.34,7.84h0s0,.08,0,.08c0,0,0,.01,0,.02h0s0,21.64,0,21.64h10.88v-23.23c0-5.83-1.52-10.43-4.51-13.66Zm74.36,16.35c0-2.93-.52-5.72-1.56-8.27-1.03-2.55-2.49-4.83-4.34-6.76-1.85-1.93-4.09-3.45-6.67-4.54-2.58-1.09-5.46-1.64-8.56-1.64-2.93,0-5.73.56-8.31,1.68-2.58,1.11-4.86,2.64-6.76,4.55-1.9,1.9-3.43,4.18-4.55,6.76-1.11,2.58-1.68,5.37-1.68,8.31s.54,5.73,1.6,8.31c1.06,2.58,2.55,4.85,4.42,6.75,1.87,1.9,4.17,3.43,6.84,4.54,2.66,1.11,5.61,1.68,8.77,1.68,9.12,0,14.81-4.15,18.2-8.03l-7.76-5.91c-1.64,1.94-5.52,4.57-10.36,4.57-3.04,0-5.54-.7-7.44-2.09-1.9-1.39-3.21-3.3-3.89-5.68l-.11-.38h32.15v-3.85Zm-32.06-3.75c0-3,3.44-8.22,10.85-8.23,7.41,0,10.86,5.23,10.86,8.22h-21.71Z"/>
      <path class="c" d="m156.58,2.44c-.21-.48-.5-.9-.86-1.27-.36-.36-.78-.65-1.27-.86C153.97.11,153.46,0,152.9,0s-1.07.11-1.55.32c-.48.21-.91.5-1.27.86-.36.36-.65.78-.86,1.27-.21.48-.32,1-.32,1.55s.11,1.07.32,1.55.5.9.86,1.27c.36.36.78.65,1.27.86.48.21,1,.32,1.55.32s1.07-.11,1.55-.32c.48-.21.9-.5,1.27-.86.36-.36.65-.78.86-1.27.21-.48.32-1,.32-1.55s-.11-1.07-.32-1.55Zm-.65,2.83c-.17.4-.41.75-.7,1.05-.3.3-.65.53-1.05.7-.4.17-.83.26-1.28.26s-.88-.09-1.28-.26c-.4-.17-.75-.41-1.05-.7-.3-.3-.53-.65-.7-1.05-.17-.4-.26-.83-.26-1.28s.09-.88.26-1.28c.17-.4.41-.75.7-1.05.3-.3.65-.53,1.05-.7.4-.17.83-.26,1.28-.26s.88.09,1.28.26c.4.17.75.41,1.05.7.3.3.53.65.7,1.05.17.4.26.83.26,1.28s-.09.88-.26,1.28Zm-2.27-.95c.31-.04.57-.15.78-.35.21-.2.31-.5.31-.9,0-.44-.13-.78-.39-1.02-.26-.24-.67-.35-1.22-.35h-1.76v4.56h.84v-1.87h.61l1.14,1.87h.88l-1.18-1.93Zm-.45-.66c-.13.01-.26.02-.39.02h-.61v-1.28h.61c.13,0,.26,0,.39.01.13,0,.24.03.35.08.1.04.19.11.25.19s.1.2.1.35-.03.27-.1.35c-.06.09-.15.15-.25.19-.1.04-.22.07-.35.08Z"/>
    </g>
  </g>
  <g>
    <path class="b" d="m6.89,130.38H0v-58.8h6.89v58.8Z"/>
    <path class="b" d="m43.93,123.74c-3.36,4.79-9.24,7.48-15.54,7.48-8.9,0-15.12-4.87-15.12-12.35s5.46-12.43,18.65-12.43h11.93c-.08-7.64-4.12-11.93-11.26-11.93-4.54,0-8.65,2.02-12.43,5.46l-3.61-4.54c4.2-4.03,9.74-6.8,16.72-6.8,11.34,0,17.3,7.39,17.3,18.14v23.6h-6.64v-6.64Zm-23.94-5.04c0,3.7,3.36,7.06,9.16,7.06,7.48,0,14.28-5.21,14.7-14.03h-11.84c-8.82,0-12.01,2.52-12.01,6.97Z"/>
    <path class="b" d="m58.13,71.58h6.8v24.53c3.53-4.45,8.9-7.22,14.87-7.22,10.84,0,20.08,8.15,20.08,21.08s-9.66,21.34-20.41,21.34c-5.71,0-11.09-2.6-14.62-6.97v6.05h-6.72v-58.8Zm20.75,53.76c7.98,0,14.03-5.71,14.03-15.2s-5.96-15.2-13.78-15.2-14.45,6.47-14.45,15.37,6.38,15.04,14.2,15.04Z"/>
    <path class="b" d="m103.49,124.92l3.53-5.21c5.38,4.45,9.58,6.05,14.36,6.05,6.8,0,10.84-2.94,10.84-6.8s-2.35-5.8-10.84-5.96c-11.68-.42-16.3-4.2-16.3-11.76,0-6.97,6.38-12.52,16.04-12.52,6.38,0,12.01,2.02,16.63,5.96l-3.28,5.12c-4.96-3.95-8.99-5.29-13.44-5.29-5.88,0-9.41,3.02-9.41,6.38s2.18,5.54,9.83,5.88c12.43.34,17.3,3.95,17.3,11.76s-6.97,12.94-17.56,12.94c-6.8,0-12.85-2.18-17.72-6.55Z"/>
  </g>
</svg>